# xmcd
#
# Track frame offsets: 
#        150
#        21262
#        39824
#        59886
#        77398
#        96110
#        113472
#        132034
#        153296
#        172008
#
# Disc length: 2496 seconds
#
# Revision: 0
# Processed by: cddbd v1.5.2PL0 Copyright (c) Steve Scherf et al.
# Submitted via: ExactAudioCopy v0.99pb5
#
DISCID=7009be0a
DTITLE=เดียร์ นารินทร์ - เดียร์ นารินทร์
DYEAR=2010
DGENRE=Country
TTITLE0=นอนกอดฉันฝันถึงคนอื่น
TTITLE1=มีแฟนใหม่เร็วไปหรือเปล่า
TTITLE2=คนไม่พิเศษ
TTITLE3=ปล่อยให้น้องคิดถึง
TTITLE4=ชวนเขามานั่งฟัง
TTITLE5=ตัวแทนแฟนเก่า
TTITLE6=นายใจร้ายกับยายใจร้อน
TTITLE7=คำสารภาพ
TTITLE8=เขาไม่ใช่คู่แข่ง
TTITLE9=ถอ'ีกว่า
EXTD=
EXTT0=
EXTT1=
EXTT2=
EXTT3=
EXTT4=
EXTT5=
EXTT6=
EXTT7=
EXTT8=
EXTT9=
PLAYORDER=
